# xmcd
#
# Track frame offsets:
#	150
#	20618
#	44252
#	62558
#	78516
#	95726
#	115605
#	137550
#	155855
#	186459
#	208437
#	235017
#
# Disc length: 3441 seconds
#
# Revision: 2
# Processed by: cddbd v1.5.2PL0 Copyright (c) Steve Scherf et al.
# Submitted via: audiograbber 1.83.01
#
DISCID=aa0d6f0c
DTITLE=Barclay James Harvest - XII [Deluxe Edition ] [CD 2) [New Stereo Mix 201
DTITLE=6]
DYEAR=2016
DGENRE=Progressive Rock
TTITLE0=Loving Is Easy
TTITLE1=Berlin
TTITLE2=A Tale Of Two Sixties
TTITLE3=Turning In Circles
TTITLE4=Fact: The Closed Shop
TTITLE5=In Search Of England
TTITLE6=Sip Of Wine
TTITLE7=Harbour
TTITLE8=Nova Lepidoptera
TTITLE9=Giving It Up
TTITLE10=Fiction: The Streets Of San Francicso
TTITLE11=Bonus Track: The Streets Of San Francicso [alternate version]
EXTD=
EXTT0=
EXTT1=
EXTT2=
EXTT3=
EXTT4=
EXTT5=
EXTT6=
EXTT7=
EXTT8=
EXTT9=
EXTT10=
EXTT11=
PLAYORDER=
